<?xml version="1.0" encoding="UTF-8" standalone="no"?>
<!DOCTYPE svg PUBLIC "-//W3C//DTD SVG 1.1//EN"
 "http://www.w3.org/Graphics/SVG/1.1/DTD/svg11.dtd">
<!-- Generated by graphviz version 12.0.0 (0)
 -->
<!-- Pages: 1 -->
<svg width="748pt" height="332pt"
 viewBox="0.00 0.00 748.11 332.00" xmlns="http://www.w3.org/2000/svg" xmlns:xlink="http://www.w3.org/1999/xlink">
<g id="graph0" class="graph" transform="scale(1 1) rotate(0) translate(4 328)">
<polygon fill="white" stroke="none" points="-4,4 -4,-328 744.11,-328 744.11,4 -4,4"/>
<!-- node&#45;deps&#45;analyser@1.0.0 -->
<g id="node1" class="node">
<title>node&#45;deps&#45;analyser@1.0.0</title>
<ellipse fill="none" stroke="black" cx="370.4" cy="-306" rx="110.21" ry="18"/>
<text text-anchor="middle" x="370.4" y="-300.95" font-family="Times,serif" font-size="14.00">node&#45;deps&#45;analyser@1.0.0</text>
</g>
<!-- @ts&#45;graphviz/adapter@2.0.3 -->
<g id="node2" class="node">
<title>@ts&#45;graphviz/adapter@2.0.3</title>
<ellipse fill="none" stroke="black" cx="118.4" cy="-90" rx="118.4" ry="18"/>
<text text-anchor="middle" x="118.4" y="-84.95" font-family="Times,serif" font-size="14.00">@ts&#45;graphviz/adapter@2.0.3</text>
</g>
<!-- node&#45;deps&#45;analyser@1.0.0&#45;&gt;@ts&#45;graphviz/adapter@2.0.3 -->
<g id="edge2" class="edge">
<title>node&#45;deps&#45;analyser@1.0.0&#45;&gt;@ts&#45;graphviz/adapter@2.0.3</title>
<path fill="none" stroke="black" d="M279.08,-295.75C246.01,-288.39 210.43,-275.28 184.4,-252 145.35,-217.08 128.92,-155.6 122.38,-119.56"/>
<polygon fill="black" stroke="black" points="125.87,-119.17 120.77,-109.88 118.96,-120.32 125.87,-119.17"/>
</g>
<!-- ts&#45;graphviz@2.1.2 -->
<g id="node4" class="node">
<title>ts&#45;graphviz@2.1.2</title>
<ellipse fill="none" stroke="black" cx="273.4" cy="-234" rx="80.01" ry="18"/>
<text text-anchor="middle" x="273.4" y="-228.95" font-family="Times,serif" font-size="14.00">ts&#45;graphviz@2.1.2</text>
</g>
<!-- node&#45;deps&#45;analyser@1.0.0&#45;&gt;ts&#45;graphviz@2.1.2 -->
<g id="edge12" class="edge">
<title>node&#45;deps&#45;analyser@1.0.0&#45;&gt;ts&#45;graphviz@2.1.2</title>
<path fill="none" stroke="black" d="M346.92,-288.05C334.43,-279.05 318.91,-267.84 305.34,-258.05"/>
<polygon fill="black" stroke="black" points="307.71,-255.45 297.56,-252.43 303.62,-261.12 307.71,-255.45"/>
</g>
<!-- @types/node@20.13.0 -->
<g id="node7" class="node">
<title>@types/node@20.13.0</title>
<ellipse fill="none" stroke="black" cx="467.4" cy="-234" rx="96.39" ry="18"/>
<text text-anchor="middle" x="467.4" y="-228.95" font-family="Times,serif" font-size="14.00">@types/node@20.13.0</text>
</g>
<!-- node&#45;deps&#45;analyser@1.0.0&#45;&gt;@types/node@20.13.0 -->
<g id="edge14" class="edge">
<title>node&#45;deps&#45;analyser@1.0.0&#45;&gt;@types/node@20.13.0</title>
<path fill="none" stroke="blue" d="M393.88,-288.05C406.27,-279.11 421.66,-268.01 435.16,-258.27"/>
<polygon fill="blue" stroke="blue" points="436.85,-261.36 442.91,-252.67 432.75,-255.69 436.85,-261.36"/>
</g>
<!-- typescript@5.4.5 -->
<g id="node9" class="node">
<title>typescript@5.4.5</title>
<ellipse fill="none" stroke="black" cx="656.4" cy="-234" rx="74.89" ry="18"/>
<text text-anchor="middle" x="656.4" y="-228.95" font-family="Times,serif" font-size="14.00">typescript@5.4.5</text>
</g>
<!-- node&#45;deps&#45;analyser@1.0.0&#45;&gt;typescript@5.4.5 -->
<g id="edge15" class="edge">
<title>node&#45;deps&#45;analyser@1.0.0&#45;&gt;typescript@5.4.5</title>
<path fill="none" stroke="blue" d="M430.01,-290.41C478.15,-278.63 545.68,-262.1 594.44,-250.16"/>
<polygon fill="blue" stroke="blue" points="595.13,-253.6 604.01,-247.82 593.46,-246.8 595.13,-253.6"/>
</g>
<!-- @ts&#45;graphviz/common@2.1.2 -->
<g id="node3" class="node">
<title>@ts&#45;graphviz/common@2.1.2</title>
<ellipse fill="none" stroke="black" cx="329.4" cy="-18" rx="124.54" ry="18"/>
<text text-anchor="middle" x="329.4" y="-12.95" font-family="Times,serif" font-size="14.00">@ts&#45;graphviz/common@2.1.2</text>
</g>
<!-- @ts&#45;graphviz/adapter@2.0.3&#45;&gt;@ts&#45;graphviz/common@2.1.2 -->
<g id="edge1" class="edge">
<title>@ts&#45;graphviz/adapter@2.0.3&#45;&gt;@ts&#45;graphviz/common@2.1.2</title>
<path fill="none" stroke="black" d="M161.54,-72.76C191.57,-62.41 232.04,-48.96 265.76,-38.09"/>
<polygon fill="black" stroke="black" points="266.55,-41.52 275,-35.13 264.41,-34.85 266.55,-41.52"/>
</g>
<!-- @ts&#45;graphviz/adapter@2.0.3&#45;&gt;@ts&#45;graphviz/common@2.1.2 -->
<g id="edge3" class="edge">
<title>@ts&#45;graphviz/adapter@2.0.3&#45;&gt;@ts&#45;graphviz/common@2.1.2</title>
<path fill="none" stroke="black" d="M170.95,-73.46C202.8,-63.3 243.29,-49.91 275.4,-38.96"/>
<polygon fill="black" stroke="black" points="276.19,-42.39 284.51,-35.83 273.92,-35.77 276.19,-42.39"/>
</g>
<!-- ts&#45;graphviz@2.1.2&#45;&gt;@ts&#45;graphviz/adapter@2.0.3 -->
<g id="edge4" class="edge">
<title>ts&#45;graphviz@2.1.2&#45;&gt;@ts&#45;graphviz/adapter@2.0.3</title>
<path fill="none" stroke="black" d="M255.17,-216.26C235.69,-198.36 203.87,-169.16 176.4,-144 166.39,-134.83 155.39,-124.78 145.69,-115.92"/>
<polygon fill="black" stroke="black" points="148.08,-113.36 138.33,-109.2 143.35,-118.53 148.08,-113.36"/>
</g>
<!-- ts&#45;graphviz@2.1.2&#45;&gt;@ts&#45;graphviz/common@2.1.2 -->
<g id="edge7" class="edge">
<title>ts&#45;graphviz@2.1.2&#45;&gt;@ts&#45;graphviz/common@2.1.2</title>
<path fill="none" stroke="black" d="M270.98,-215.75C267.45,-185.4 263.35,-120.99 283.4,-72 287.53,-61.9 294.41,-52.37 301.6,-44.26"/>
<polygon fill="black" stroke="black" points="304.01,-46.81 308.37,-37.15 298.94,-41.98 304.01,-46.81"/>
</g>
<!-- @ts&#45;graphviz/ast@2.0.3 -->
<g id="node5" class="node">
<title>@ts&#45;graphviz/ast@2.0.3</title>
<ellipse fill="none" stroke="black" cx="394.4" cy="-90" rx="101.51" ry="18"/>
<text text-anchor="middle" x="394.4" y="-84.95" font-family="Times,serif" font-size="14.00">@ts&#45;graphviz/ast@2.0.3</text>
</g>
<!-- ts&#45;graphviz@2.1.2&#45;&gt;@ts&#45;graphviz/ast@2.0.3 -->
<g id="edge6" class="edge">
<title>ts&#45;graphviz@2.1.2&#45;&gt;@ts&#45;graphviz/ast@2.0.3</title>
<path fill="none" stroke="black" d="M279.91,-215.87C287.72,-196.84 302.21,-165.93 321.4,-144 331.33,-132.65 344.11,-122.34 356.2,-113.9"/>
<polygon fill="black" stroke="black" points="358.06,-116.86 364.42,-108.38 354.16,-111.05 358.06,-116.86"/>
</g>
<!-- @ts&#45;graphviz/core@2.0.3 -->
<g id="node6" class="node">
<title>@ts&#45;graphviz/core@2.0.3</title>
<ellipse fill="none" stroke="black" cx="437.4" cy="-162" rx="107.14" ry="18"/>
<text text-anchor="middle" x="437.4" y="-156.95" font-family="Times,serif" font-size="14.00">@ts&#45;graphviz/core@2.0.3</text>
</g>
<!-- ts&#45;graphviz@2.1.2&#45;&gt;@ts&#45;graphviz/core@2.0.3 -->
<g id="edge11" class="edge">
<title>ts&#45;graphviz@2.1.2&#45;&gt;@ts&#45;graphviz/core@2.0.3</title>
<path fill="none" stroke="black" d="M309.39,-217.64C332.74,-207.67 363.44,-194.57 388.93,-183.69"/>
<polygon fill="black" stroke="black" points="390.28,-186.92 398.1,-179.77 387.53,-180.48 390.28,-186.92"/>
</g>
<!-- @ts&#45;graphviz/ast@2.0.3&#45;&gt;@ts&#45;graphviz/common@2.1.2 -->
<g id="edge5" class="edge">
<title>@ts&#45;graphviz/ast@2.0.3&#45;&gt;@ts&#45;graphviz/common@2.1.2</title>
<path fill="none" stroke="black" d="M372.79,-72.05C364.37,-63.92 354.93,-54 346.94,-44.94"/>
<polygon fill="black" stroke="black" points="349.67,-42.75 340.51,-37.43 344.35,-47.3 349.67,-42.75"/>
</g>
<!-- @ts&#45;graphviz/ast@2.0.3&#45;&gt;@ts&#45;graphviz/common@2.1.2 -->
<g id="edge8" class="edge">
<title>@ts&#45;graphviz/ast@2.0.3&#45;&gt;@ts&#45;graphviz/common@2.1.2</title>
<path fill="none" stroke="black" d="M384.25,-71.7C377.39,-63.39 368.2,-53.28 359.25,-44.14"/>
<polygon fill="black" stroke="black" points="361.81,-41.75 352.25,-37.17 356.87,-46.71 361.81,-41.75"/>
</g>
<!-- @ts&#45;graphviz/core@2.0.3&#45;&gt;@ts&#45;graphviz/common@2.1.2 -->
<g id="edge10" class="edge">
<title>@ts&#45;graphviz/core@2.0.3&#45;&gt;@ts&#45;graphviz/common@2.1.2</title>
<path fill="none" stroke="black" d="M469.68,-144.55C483.35,-135.73 497.84,-123.47 505.4,-108 512.42,-93.62 514.94,-84.84 505.4,-72 490.62,-52.12 468.63,-39.43 445.15,-31.38"/>
<polygon fill="black" stroke="black" points="446.32,-28.08 435.73,-28.46 444.24,-34.76 446.32,-28.08"/>
</g>
<!-- @ts&#45;graphviz/core@2.0.3&#45;&gt;@ts&#45;graphviz/ast@2.0.3 -->
<g id="edge9" class="edge">
<title>@ts&#45;graphviz/core@2.0.3&#45;&gt;@ts&#45;graphviz/ast@2.0.3</title>
<path fill="none" stroke="black" d="M426.77,-143.7C421.98,-135.9 416.21,-126.51 410.88,-117.83"/>
<polygon fill="black" stroke="black" points="413.91,-116.08 405.7,-109.39 407.95,-119.75 413.91,-116.08"/>
</g>
<!-- undici&#45;types@5.26.5 -->
<g id="node8" class="node">
<title>undici&#45;types@5.26.5</title>
<ellipse fill="none" stroke="black" cx="651.4" cy="-162" rx="88.71" ry="18"/>
<text text-anchor="middle" x="651.4" y="-156.95" font-family="Times,serif" font-size="14.00">undici&#45;types@5.26.5</text>
</g>
<!-- @types/node@20.13.0&#45;&gt;undici&#45;types@5.26.5 -->
<g id="edge13" class="edge">
<title>@types/node@20.13.0&#45;&gt;undici&#45;types@5.26.5</title>
<path fill="none" stroke="black" d="M508.69,-217.29C535.75,-207 571.32,-193.47 600.18,-182.49"/>
<polygon fill="black" stroke="black" points="601.36,-185.78 609.46,-178.95 598.87,-179.24 601.36,-185.78"/>
</g>
</g>
</svg>
